{"title":"Two and a Half Men S05 Season 5 720p Web-DL ReEnc-DeeJayAhmed","uid":13864188,"size":3015004406,"categoryP":"video","categoryS":"hd___tv_shows","magnet":"?xt=urn:btih:30fe276d986e47352fe6522a409ec11f2055c6ca&amp;dn=Two+and+a+Half+Men+S05+Season+5+720p+Web-DL+ReEnc-DeeJayAhmed&amp;tr=udp%3A%2F%2Ftracker.leechers-paradise.org%3A6969&amp;tr=udp%3A%2F%2Fzer0day.ch%3A1337&amp;tr=udp%3A%2F%2Fopen.demonii.com%3A1337&amp;tr=udp%3A%2F%2Ftracker.coppersurfer.tk%3A6969&amp;tr=udp%3A%2F%2Fexodus.desync.com%3A6969","seeders":10,"leechers":3,"uploader":"DeeJayPirate","files":40,"time":1458056715,"description":"DeeJayAhmed  \nhttps://www.DeeJayAhmed.com\r\r\nKeep Seeding!!=)) \r\nDo Comment On The A/V Quality Considering The Size Of The File..!\r\nHelp Me By Donating Bitcoins : 14i1UCWye2SCjoAHR5u6LDswWgAy55dxAv\r\n\r\nVideo \r\nID : 1 \r\nFormat : AVC \r\nFormat/Info : Advanced Video Codec \r\nFormat profile :    \r\nFormat settings, CABAC : Yes \r\nFormat settings, ReFrames : 8 frames \r\nCodec ID : V_MPEG4/ISO/AVC \r\nDuration : 19mn 55s \r\nBit rate : 948 Kbps \r\nWidth : 1 280 pixels \r\nHeight : 720 pixels \r\nDisplay aspect ratio : 16:9 \r\nFrame rate mode : Constant \r\nFrame rate : 25.000 fps \r\nColor space : YUV \r\nChroma subsampling : 4:2:0 \r\nBit depth : 8 bits \r\nScan type : Progressive \r\nBits/(Pixel*Frame) : 0.041 \r\nStream size : 135 MiB (92%) \r\nDefault : Yes \r\nForced : No \r\n\r\nAudio \r\nID : 2 \r\nFormat : AAC \r\nFormat/Info : Advanced Audio Codec \r\nFormat profile : HE-AAC / LC \r\nCodec ID : A_AAC \r\nDuration : 19mn 55s \r\nBit rate : 76.7 Kbps \r\nChannel(s) : 2 channels \r\nChannel positions : Front: L R \r\nSampling rate : 48.0 KHz / 24.0 KHz \r\nFrame rate : 23.438 fps (1024 spf) \r\nCompression mode : Lossy \r\nDelay relative to video : 31ms \r\nStream size : 10.9 MiB (7%) \r\nLanguage : English \r\nDefault : Yes \r\nForced : No","torrent":{"xt":"urn:btih:30fe276d986e47352fe6522a409ec11f2055c6ca","amp;dn":"Two+and+a+Half+Men+S05+Season+5+720p+Web-DL+ReEnc-DeeJayAhmed","amp;tr":["udp%3A%2F%2Ftracker.leechers-paradise.org%3A6969","udp%3A%2F%2Fzer0day.ch%3A1337","udp%3A%2F%2Fopen.demonii.com%3A1337","udp%3A%2F%2Ftracker.coppersurfer.tk%3A6969","udp%3A%2F%2Fexodus.desync.com%3A6969"],"infoHash":"30fe276d986e47352fe6522a409ec11f2055c6ca","infoHashBuffer":{"type":"Buffer","data":[48,254,39,109,152,110,71,53,47,230,82,42,64,158,193,31,32,85,198,202]},"announce":[],"urlList":[]}}